<svg width="256" height="256" viewBox="0 0 256 256" fill="none" xmlns="http://www.w3.org/2000/svg">
<g clip-path="url(#clip0_8_6)">
<circle cx="128" cy="128" r="122" fill="#080808" stroke="url(#paint0_linear_8_6)" stroke-width="12"/>
<path d="M43.9306 146.55C42.2806 146.55 40.7222 146.234 39.2556 145.603C37.8093 144.971 36.6583 144.207 35.8028 143.311L37.1778 137.689C37.85 138.911 38.8176 139.95 40.0806 140.806C41.3435 141.641 42.688 142.058 44.1139 142.058C45.3157 142.058 46.2731 141.722 46.9861 141.05C47.6991 140.357 48.0556 139.512 48.0556 138.514C48.0556 137.719 47.8722 137.068 47.5056 136.558C47.1389 136.049 46.7111 135.642 46.2222 135.336C45.7333 135.01 45.3157 134.766 44.9694 134.603L41.7 132.953C40.8648 132.525 40.0296 132.016 39.1944 131.425C38.3593 130.814 37.6565 130.04 37.0861 129.103C36.5361 128.145 36.2611 126.964 36.2611 125.558C36.2611 124.051 36.6074 122.727 37.3 121.586C37.9926 120.445 38.9602 119.559 40.2028 118.928C41.4657 118.276 42.9222 117.95 44.5722 117.95C46.1611 117.95 47.5769 118.215 48.8194 118.744C50.062 119.254 51.0602 119.804 51.8139 120.394L50.5 125.894C49.7667 124.896 48.85 124.061 47.75 123.389C46.65 122.717 45.5194 122.381 44.3583 122.381C43.2991 122.381 42.4741 122.666 41.8833 123.236C41.313 123.786 41.0278 124.479 41.0278 125.314C41.0278 125.864 41.15 126.343 41.3944 126.75C41.6593 127.157 41.9954 127.514 42.4028 127.819C42.8306 128.105 43.2889 128.369 43.7778 128.614L47.1083 130.264C47.6176 130.508 48.188 130.834 48.8194 131.242C49.4713 131.649 50.1028 132.169 50.7139 132.8C51.325 133.411 51.8241 134.165 52.2111 135.061C52.6185 135.937 52.8222 136.986 52.8222 138.208C52.8222 139.797 52.4454 141.223 51.6917 142.486C50.9583 143.729 49.9296 144.717 48.6056 145.45C47.3019 146.183 45.7435 146.55 43.9306 146.55ZM65.244 146.55C63.431 146.55 61.7709 146.112 60.2635 145.236C58.7764 144.36 57.5949 143.189 56.719 141.722C55.8431 140.256 55.4051 138.626 55.4051 136.833C55.4051 135.041 55.8431 133.411 56.719 131.944C57.5949 130.478 58.7764 129.306 60.2635 128.431C61.7709 127.555 63.4209 127.117 65.2135 127.117C67.0468 127.117 68.707 127.555 70.194 128.431C71.681 129.306 72.8625 130.478 73.7385 131.944C74.6348 133.391 75.0829 135.02 75.0829 136.833C75.0829 138.606 74.6348 140.235 73.7385 141.722C72.8625 143.189 71.681 144.36 70.194 145.236C68.707 146.112 67.057 146.55 65.244 146.55ZM65.2135 142.211C66.2116 142.211 67.1079 141.967 67.9023 141.478C68.6968 140.989 69.3283 140.337 69.7968 139.522C70.2653 138.707 70.4996 137.811 70.4996 136.833C70.4996 135.835 70.2653 134.939 69.7968 134.144C69.3283 133.33 68.6968 132.678 67.9023 132.189C67.1079 131.7 66.2116 131.456 65.2135 131.456C64.2357 131.456 63.3496 131.7 62.5551 132.189C61.7607 132.678 61.1292 133.33 60.6607 134.144C60.1922 134.939 59.9579 135.835 59.9579 136.833C59.9579 137.811 60.1922 138.707 60.6607 139.522C61.1292 140.337 61.7607 140.989 62.5551 141.478C63.3496 141.967 64.2357 142.211 65.2135 142.211ZM78.6159 146V116.667H83.4131V146H78.6159ZM104.774 146.55C103.124 146.55 101.566 146.234 100.099 145.603C98.653 144.971 97.5021 144.207 96.6465 143.311L98.0215 137.689C98.6938 138.911 99.6613 139.95 100.924 140.806C102.187 141.641 103.532 142.058 104.958 142.058C106.159 142.058 107.117 141.722 107.83 141.05C108.543 140.357 108.899 139.512 108.899 138.514C108.899 137.719 108.716 137.068 108.349 136.558C107.983 136.049 107.555 135.642 107.066 135.336C106.577 135.01 106.159 134.766 105.813 134.603L102.544 132.953C101.709 132.525 100.873 132.016 100.038 131.425C99.203 130.814 98.5002 130.04 97.9299 129.103C97.3799 128.145 97.1049 126.964 97.1049 125.558C97.1049 124.051 97.4512 122.727 98.1438 121.586C98.8363 120.445 99.8039 119.559 101.047 118.928C102.309 118.276 103.766 117.95 105.416 117.95C107.005 117.95 108.421 118.215 109.663 118.744C110.906 119.254 111.904 119.804 112.658 120.394L111.344 125.894C110.61 124.896 109.694 124.061 108.594 123.389C107.494 122.717 106.363 122.381 105.202 122.381C104.143 122.381 103.318 122.666 102.727 123.236C102.157 123.786 101.872 124.479 101.872 125.314C101.872 125.864 101.994 126.343 102.238 126.75C102.503 127.157 102.839 127.514 103.247 127.819C103.674 128.105 104.133 128.369 104.622 128.614L107.952 130.264C108.461 130.508 109.032 130.834 109.663 131.242C110.315 131.649 110.947 132.169 111.558 132.8C112.169 133.411 112.668 134.165 113.055 135.061C113.462 135.937 113.666 136.986 113.666 138.208C113.666 139.797 113.289 141.223 112.535 142.486C111.802 143.729 110.773 144.717 109.449 145.45C108.146 146.183 106.587 146.55 104.774 146.55ZM119.396 146V131.517H115.791V127.667H119.488V121.556H124.102V127.667H127.952V131.517H124.193V146H119.396ZM138.066 146.55C136.782 146.55 135.57 146.234 134.429 145.603C133.289 144.971 132.372 144.065 131.679 142.883C130.987 141.681 130.641 140.225 130.641 138.514V127.667H135.438V137.872C135.438 139.013 135.774 140.021 136.446 140.897C137.139 141.773 138.096 142.211 139.318 142.211C140.337 142.211 141.243 141.844 142.038 141.111C142.832 140.378 143.229 139.329 143.229 137.964V127.667H148.027V146H143.657V143.8C143.005 144.696 142.191 145.379 141.213 145.847C140.235 146.316 139.186 146.55 138.066 146.55ZM160.693 146.428C159.002 146.428 157.464 146 156.079 145.144C154.694 144.269 153.584 143.107 152.748 141.661C151.934 140.194 151.526 138.585 151.526 136.833C151.526 135.081 151.934 133.482 152.748 132.036C153.584 130.569 154.694 129.408 156.079 128.553C157.464 127.677 159.002 127.239 160.693 127.239C161.732 127.239 162.689 127.402 163.565 127.728C164.461 128.054 165.266 128.502 165.979 129.072V116.667H170.776V146H166.59V144.044C165.877 144.778 165.011 145.358 163.993 145.786C162.974 146.214 161.874 146.428 160.693 146.428ZM161.243 142.181C162.221 142.181 163.097 141.936 163.871 141.447C164.665 140.958 165.297 140.317 165.765 139.522C166.234 138.707 166.468 137.811 166.468 136.833C166.468 135.856 166.234 134.969 165.765 134.175C165.297 133.36 164.665 132.708 163.871 132.219C163.097 131.731 162.231 131.486 161.273 131.486C160.296 131.486 159.41 131.731 158.615 132.219C157.841 132.708 157.22 133.36 156.751 134.175C156.283 134.969 156.048 135.856 156.048 136.833C156.048 137.811 156.283 138.707 156.751 139.522C157.22 140.317 157.841 140.958 158.615 141.447C159.41 141.936 160.285 142.181 161.243 142.181ZM175.339 146V127.667H180.136V146H175.339ZM177.752 124.856C176.999 124.856 176.357 124.601 175.827 124.092C175.318 123.562 175.064 122.92 175.064 122.167C175.064 121.393 175.318 120.751 175.827 120.242C176.357 119.732 176.999 119.478 177.752 119.478C178.527 119.478 179.168 119.732 179.677 120.242C180.187 120.751 180.441 121.393 180.441 122.167C180.441 122.92 180.187 123.562 179.677 124.092C179.168 124.601 178.527 124.856 177.752 124.856ZM193.506 146.55C191.693 146.55 190.033 146.112 188.525 145.236C187.038 144.36 185.857 143.189 184.981 141.722C184.105 140.256 183.667 138.626 183.667 136.833C183.667 135.041 184.105 133.411 184.981 131.944C185.857 130.478 187.038 129.306 188.525 128.431C190.033 127.555 191.683 127.117 193.475 127.117C195.309 127.117 196.969 127.555 198.456 128.431C199.943 129.306 201.124 130.478 202 131.944C202.896 133.391 203.345 135.02 203.345 136.833C203.345 138.606 202.896 140.235 202 141.722C201.124 143.189 199.943 144.36 198.456 145.236C196.969 146.112 195.319 146.55 193.506 146.55ZM193.475 142.211C194.473 142.211 195.37 141.967 196.164 141.478C196.959 140.989 197.59 140.337 198.059 139.522C198.527 138.707 198.761 137.811 198.761 136.833C198.761 135.835 198.527 134.939 198.059 134.144C197.59 133.33 196.959 132.678 196.164 132.189C195.37 131.7 194.473 131.456 193.475 131.456C192.497 131.456 191.611 131.7 190.817 132.189C190.022 132.678 189.391 133.33 188.922 134.144C188.454 134.939 188.22 135.835 188.22 136.833C188.22 137.811 188.454 138.707 188.922 139.522C189.391 140.337 190.022 140.989 190.817 141.478C191.611 141.967 192.497 142.211 193.475 142.211ZM212.53 146.55C211.369 146.55 210.178 146.356 208.955 145.969C207.733 145.562 206.755 144.992 206.022 144.258L207.244 139.614C207.835 140.469 208.629 141.203 209.628 141.814C210.646 142.405 211.695 142.7 212.775 142.7C213.59 142.7 214.18 142.537 214.547 142.211C214.934 141.865 215.128 141.447 215.128 140.958C215.128 140.408 214.934 140.011 214.547 139.767C214.16 139.502 213.773 139.298 213.386 139.156L210.85 138.208C210.32 137.984 209.699 137.689 208.986 137.322C208.273 136.935 207.652 136.395 207.122 135.703C206.613 134.99 206.358 134.063 206.358 132.922C206.358 131.883 206.613 130.926 207.122 130.05C207.631 129.174 208.365 128.471 209.322 127.942C210.3 127.392 211.471 127.117 212.836 127.117C214.058 127.117 215.219 127.331 216.319 127.758C217.44 128.166 218.285 128.675 218.855 129.286L217.725 133.808C217.073 132.912 216.289 132.219 215.372 131.731C214.455 131.221 213.569 130.967 212.714 130.967C212.001 130.967 211.471 131.13 211.125 131.456C210.779 131.761 210.605 132.128 210.605 132.556C210.605 132.881 210.728 133.187 210.972 133.472C211.216 133.757 211.614 134.002 212.164 134.206L214.547 135.122C215.179 135.346 215.871 135.662 216.625 136.069C217.379 136.456 218.02 137.006 218.55 137.719C219.1 138.432 219.375 139.41 219.375 140.653C219.375 142.405 218.733 143.831 217.45 144.931C216.187 146.01 214.547 146.55 212.53 146.55Z" fill="white"/>
<mask id="path-3-inside-1_8_6" fill="white">
<path d="M11.7157 83.2843C-3.90524 67.6633 -3.90524 42.3367 11.7157 26.7157V26.7157C27.3367 11.0948 52.6633 11.0948 68.2843 26.7157V26.7157C83.9052 42.3367 83.9052 67.6633 68.2843 83.2843V83.2843C52.6633 98.9052 27.3367 98.9052 11.7157 83.2843V83.2843Z"/>
</mask>
<path d="M11.7157 83.2843C-3.90524 67.6633 -3.90524 42.3367 11.7157 26.7157V26.7157C27.3367 11.0948 52.6633 11.0948 68.2843 26.7157V26.7157C83.9052 42.3367 83.9052 67.6633 68.2843 83.2843V83.2843C52.6633 98.9052 27.3367 98.9052 11.7157 83.2843V83.2843Z" fill="url(#paint1_linear_8_6)"/>
<path d="M11.0086 82.5772C-4.61235 66.9562 -4.61235 41.6296 11.0086 26.0086C26.6296 10.3877 51.9562 10.3877 67.5772 26.0086L68.2843 26.7157C53.0538 11.4853 28.0438 11.8019 12.4228 27.4228C-3.19814 43.0438 -3.51472 68.0538 11.7157 83.2843L11.0086 82.5772ZM96.5685 55L40 111.569L96.5685 55ZM40 111.569L-16.5685 55L40 111.569ZM40 -1.56854L96.5685 55L40 -1.56854Z" fill="white" mask="url(#path-3-inside-1_8_6)"/>
</g>
<defs>
<linearGradient id="paint0_linear_8_6" x1="128" y1="0" x2="128" y2="256" gradientUnits="userSpaceOnUse">
<stop stop-color="#F3D553"/>
<stop offset="1" stop-color="#5B4B03"/>
</linearGradient>
<linearGradient id="paint1_linear_8_6" x1="11.7157" y1="26.7157" x2="68.2843" y2="83.2843" gradientUnits="userSpaceOnUse">
<stop stop-color="#202020"/>
<stop offset="1" stop-color="#080808"/>
</linearGradient>
<clipPath id="clip0_8_6">
<rect width="256" height="256" fill="white"/>
</clipPath>
</defs>
</svg>
